<mxfile host="app.diagrams.net" modified="2023-01-18T12:22:12.389Z" agent="5.0 (Windows)" etag="U9jiWx_USQ7581OMJzvu" version="20.8.5" type="github">
  <diagram name="Page-1" id="dd472eb7-4b8b-5cd9-a60b-b15522922e76">
    <mxGraphModel dx="1717" dy="925" grid="1" gridSize="10" guides="1" tooltips="1" connect="1" arrows="1" fold="1" page="1" pageScale="1" pageWidth="1100" pageHeight="850" background="none" math="0" shadow="0">
      <root>
        <mxCell id="0" />
        <mxCell id="1" parent="0" />
        <mxCell id="7mqCqa5LbuB4b-R1EXME-1" value="&lt;div style=&quot;font-size: 15px;&quot;&gt;&lt;font style=&quot;font-size: 15px;&quot; color=&quot;#F01818&quot;&gt;Complejidad&lt;/font&gt;&lt;/div&gt;&lt;div style=&quot;font-size: 15px;&quot;&gt;&lt;font style=&quot;font-size: 15px;&quot; color=&quot;#F01818&quot;&gt;&lt;br&gt;&lt;/font&gt;&lt;/div&gt;" style="endArrow=classic;html=1;rounded=0;fillColor=#f8cecc;strokeColor=#b85450;" edge="1" parent="1">
          <mxGeometry x="0.0303" width="50" height="50" relative="1" as="geometry">
            <mxPoint x="80" y="760" as="sourcePoint" />
            <mxPoint x="80" y="20" as="targetPoint" />
            <Array as="points">
              <mxPoint x="80" y="430" />
            </Array>
            <mxPoint as="offset" />
          </mxGeometry>
        </mxCell>
        <mxCell id="7mqCqa5LbuB4b-R1EXME-2" value="&lt;font style=&quot;font-size: 18px;&quot; color=&quot;#e8f1f9&quot;&gt;TIEMPO&lt;/font&gt;" style="endArrow=classic;html=1;rounded=0;fillColor=#dae8fc;strokeColor=#6c8ebf;" edge="1" parent="1">
          <mxGeometry width="50" height="50" relative="1" as="geometry">
            <mxPoint x="80" y="760" as="sourcePoint" />
            <mxPoint x="1050" y="760" as="targetPoint" />
          </mxGeometry>
        </mxCell>
        <mxCell id="7mqCqa5LbuB4b-R1EXME-5" value="" style="edgeStyle=orthogonalEdgeStyle;rounded=0;orthogonalLoop=1;jettySize=auto;html=1;fontSize=18;fontColor=#000000;" edge="1" parent="1" source="7mqCqa5LbuB4b-R1EXME-3" target="7mqCqa5LbuB4b-R1EXME-4">
          <mxGeometry relative="1" as="geometry" />
        </mxCell>
        <mxCell id="7mqCqa5LbuB4b-R1EXME-7" value="" style="edgeStyle=orthogonalEdgeStyle;rounded=0;orthogonalLoop=1;jettySize=auto;html=1;fontSize=18;fontColor=#0F0F0F;" edge="1" parent="1" source="7mqCqa5LbuB4b-R1EXME-3" target="7mqCqa5LbuB4b-R1EXME-6">
          <mxGeometry relative="1" as="geometry" />
        </mxCell>
        <mxCell id="7mqCqa5LbuB4b-R1EXME-3" value="&lt;div style=&quot;font-size: 13px;&quot;&gt;&lt;font style=&quot;font-size: 13px;&quot; color=&quot;#000000&quot;&gt;OPV 1&lt;/font&gt;&lt;/div&gt;&lt;div style=&quot;font-size: 13px;&quot;&gt;&lt;font style=&quot;font-size: 13px;&quot; color=&quot;#000000&quot;&gt;COL&lt;br&gt;&lt;/font&gt;&lt;/div&gt;" style="ellipse;whiteSpace=wrap;html=1;aspect=fixed;fillColor=#d5e8d4;strokeColor=#82b366;" vertex="1" parent="1">
          <mxGeometry x="120" y="640" width="80" height="80" as="geometry" />
        </mxCell>
        <mxCell id="7mqCqa5LbuB4b-R1EXME-13" value="" style="edgeStyle=orthogonalEdgeStyle;rounded=0;orthogonalLoop=1;jettySize=auto;html=1;fontSize=10;fontColor=#0A0A0A;" edge="1" parent="1" source="7mqCqa5LbuB4b-R1EXME-4" target="7mqCqa5LbuB4b-R1EXME-12">
          <mxGeometry relative="1" as="geometry">
            <Array as="points">
              <mxPoint x="355" y="520" />
              <mxPoint x="525" y="520" />
            </Array>
          </mxGeometry>
        </mxCell>
        <mxCell id="7mqCqa5LbuB4b-R1EXME-24" value="" style="edgeStyle=orthogonalEdgeStyle;rounded=0;orthogonalLoop=1;jettySize=auto;html=1;fontSize=16;fontColor=#000000;" edge="1" parent="1" source="7mqCqa5LbuB4b-R1EXME-4" target="7mqCqa5LbuB4b-R1EXME-23">
          <mxGeometry relative="1" as="geometry" />
        </mxCell>
        <mxCell id="7mqCqa5LbuB4b-R1EXME-4" value="&lt;div style=&quot;font-size: 13px;&quot;&gt;&lt;b&gt;&lt;font style=&quot;font-size: 13px;&quot; color=&quot;#0F0F0F&quot;&gt;&lt;span style=&quot;background-color: transparent;&quot;&gt;OPV 2&lt;/span&gt;&lt;/font&gt;&lt;/b&gt;&lt;/div&gt;&lt;div style=&quot;font-size: 13px;&quot;&gt;&lt;b&gt;&lt;font style=&quot;font-size: 13px;&quot; color=&quot;#0F0F0F&quot;&gt;&lt;span style=&quot;background-color: transparent;&quot;&gt;COL&lt;/span&gt;&lt;/font&gt;&lt;font style=&quot;font-size: 13px;&quot;&gt;&lt;br&gt;&lt;/font&gt;&lt;/b&gt;&lt;/div&gt;" style="ellipse;whiteSpace=wrap;html=1;fillColor=#d5e8d4;strokeColor=#82b366;" vertex="1" parent="1">
          <mxGeometry x="300" y="540" width="110" height="110" as="geometry" />
        </mxCell>
        <mxCell id="7mqCqa5LbuB4b-R1EXME-9" value="" style="edgeStyle=orthogonalEdgeStyle;rounded=0;orthogonalLoop=1;jettySize=auto;html=1;fontSize=18;fontColor=#030303;" edge="1" parent="1" source="7mqCqa5LbuB4b-R1EXME-6" target="7mqCqa5LbuB4b-R1EXME-8">
          <mxGeometry relative="1" as="geometry" />
        </mxCell>
        <mxCell id="7mqCqa5LbuB4b-R1EXME-11" value="" style="edgeStyle=orthogonalEdgeStyle;rounded=0;orthogonalLoop=1;jettySize=auto;html=1;fontSize=10;fontColor=#0a0a0a;" edge="1" parent="1" source="7mqCqa5LbuB4b-R1EXME-6" target="7mqCqa5LbuB4b-R1EXME-10">
          <mxGeometry relative="1" as="geometry" />
        </mxCell>
        <mxCell id="7mqCqa5LbuB4b-R1EXME-6" value="&lt;b&gt;&lt;font color=&quot;#030303&quot;&gt;ONEMI&lt;/font&gt;&lt;/b&gt;" style="ellipse;whiteSpace=wrap;html=1;fillColor=#dae8fc;strokeColor=#6c8ebf;gradientColor=#7ea6e0;" vertex="1" parent="1">
          <mxGeometry x="100" y="530" width="70" height="70" as="geometry" />
        </mxCell>
        <mxCell id="7mqCqa5LbuB4b-R1EXME-8" value="&lt;div style=&quot;font-size: 10px;&quot; align=&quot;left&quot;&gt;&lt;font style=&quot;font-size: 10px;&quot; color=&quot;#0a0a0a&quot;&gt;- Telefonía Análoga&lt;/font&gt;&lt;/div&gt;&lt;div style=&quot;font-size: 10px;&quot; align=&quot;left&quot;&gt;&lt;font style=&quot;font-size: 10px;&quot; color=&quot;#0a0a0a&quot;&gt;- Grabaciones&lt;/font&gt;&lt;/div&gt;&lt;div style=&quot;font-size: 10px;&quot; align=&quot;left&quot;&gt;&lt;font style=&quot;font-size: 10px;&quot; color=&quot;#0a0a0a&quot;&gt;- HMI&lt;/font&gt;&lt;font style=&quot;font-size: 10px;&quot; color=&quot;#0a0a0a&quot;&gt;&lt;br&gt;&lt;/font&gt;&lt;/div&gt;" style="shape=parallelogram;perimeter=parallelogramPerimeter;whiteSpace=wrap;html=1;fixedSize=1;fillColor=#dae8fc;strokeColor=#6c8ebf;gradientColor=#7ea6e0;" vertex="1" parent="1">
          <mxGeometry x="90" y="450" width="120" height="60" as="geometry" />
        </mxCell>
        <mxCell id="7mqCqa5LbuB4b-R1EXME-10" value="&lt;font color=&quot;#0A0A0A&quot;&gt;ICS Linux&lt;/font&gt;" style="whiteSpace=wrap;html=1;fillColor=#dae8fc;strokeColor=#6c8ebf;gradientColor=#7ea6e0;" vertex="1" parent="1">
          <mxGeometry x="230" y="500" width="60" height="30" as="geometry" />
        </mxCell>
        <mxCell id="7mqCqa5LbuB4b-R1EXME-15" value="" style="edgeStyle=orthogonalEdgeStyle;rounded=0;orthogonalLoop=1;jettySize=auto;html=1;fontSize=16;fontColor=#121212;" edge="1" parent="1" source="7mqCqa5LbuB4b-R1EXME-12" target="7mqCqa5LbuB4b-R1EXME-14">
          <mxGeometry relative="1" as="geometry" />
        </mxCell>
        <mxCell id="7mqCqa5LbuB4b-R1EXME-17" value="" style="edgeStyle=orthogonalEdgeStyle;rounded=0;orthogonalLoop=1;jettySize=auto;html=1;fontSize=16;fontColor=#000000;" edge="1" parent="1" source="7mqCqa5LbuB4b-R1EXME-12" target="7mqCqa5LbuB4b-R1EXME-16">
          <mxGeometry relative="1" as="geometry" />
        </mxCell>
        <mxCell id="7mqCqa5LbuB4b-R1EXME-32" value="" style="edgeStyle=orthogonalEdgeStyle;rounded=0;orthogonalLoop=1;jettySize=auto;html=1;fontSize=13;fontColor=#030303;exitX=1;exitY=0.5;exitDx=0;exitDy=0;" edge="1" parent="1" source="7mqCqa5LbuB4b-R1EXME-12" target="7mqCqa5LbuB4b-R1EXME-29">
          <mxGeometry relative="1" as="geometry">
            <Array as="points">
              <mxPoint x="630" y="369" />
              <mxPoint x="630" y="219" />
            </Array>
          </mxGeometry>
        </mxCell>
        <mxCell id="7mqCqa5LbuB4b-R1EXME-34" style="edgeStyle=orthogonalEdgeStyle;rounded=0;orthogonalLoop=1;jettySize=auto;html=1;fontSize=13;fontColor=#030303;entryX=0;entryY=0.5;entryDx=0;entryDy=0;" edge="1" parent="1" source="7mqCqa5LbuB4b-R1EXME-12" target="7mqCqa5LbuB4b-R1EXME-35">
          <mxGeometry relative="1" as="geometry">
            <mxPoint x="700" y="439" as="targetPoint" />
            <Array as="points">
              <mxPoint x="630" y="369" />
              <mxPoint x="630" y="399" />
            </Array>
          </mxGeometry>
        </mxCell>
        <mxCell id="7mqCqa5LbuB4b-R1EXME-12" value="&lt;div style=&quot;font-size: 16px;&quot;&gt;&lt;b&gt;&lt;font style=&quot;font-size: 16px;&quot; color=&quot;#121212&quot;&gt;ICS OPV 4&lt;/font&gt;&lt;/b&gt;&lt;/div&gt;&lt;div style=&quot;font-size: 16px;&quot;&gt;&lt;b&gt;&lt;font style=&quot;font-size: 16px;&quot; color=&quot;#121212&quot;&gt;ACH&lt;/font&gt;&lt;font style=&quot;font-size: 16px;&quot;&gt;&lt;br&gt;&lt;/font&gt;&lt;/b&gt;&lt;/div&gt;" style="ellipse;whiteSpace=wrap;html=1;fillColor=#fff2cc;strokeColor=#d6b656;gradientColor=#ffd966;" vertex="1" parent="1">
          <mxGeometry x="450" y="309" width="130" height="120" as="geometry" />
        </mxCell>
        <mxCell id="7mqCqa5LbuB4b-R1EXME-14" value="&lt;div align=&quot;left&quot;&gt;&lt;font color=&quot;#000000&quot;&gt;- Matriz de Audio&lt;/font&gt;&lt;/div&gt;&lt;div align=&quot;left&quot;&gt;&lt;font color=&quot;#000000&quot;&gt;- Video Conferencias&lt;/font&gt;&lt;/div&gt;&lt;div align=&quot;left&quot;&gt;&lt;font color=&quot;#000000&quot;&gt;- Circuito MC&lt;/font&gt;&lt;/div&gt;&lt;div align=&quot;left&quot;&gt;&lt;font color=&quot;#000000&quot;&gt;- SATCOM&lt;/font&gt;&lt;/div&gt;&lt;div align=&quot;left&quot;&gt;&lt;font color=&quot;#000000&quot;&gt;- SATCOM EMCO&lt;/font&gt;&lt;/div&gt;&lt;div align=&quot;left&quot;&gt;&lt;font color=&quot;#000000&quot;&gt;- Sistema Admin.&lt;/font&gt;&lt;/div&gt;&lt;div align=&quot;left&quot;&gt;&lt;font color=&quot;#000000&quot;&gt;- Nodos F.O&lt;/font&gt;&lt;/div&gt;&lt;div align=&quot;left&quot;&gt;&lt;font color=&quot;#000000&quot;&gt;- S.O&lt;/font&gt;&lt;/div&gt;&lt;div align=&quot;left&quot;&gt;&lt;font color=&quot;#000000&quot;&gt;- Diseño HW&lt;/font&gt;&lt;/div&gt;&lt;div align=&quot;left&quot;&gt;&lt;font color=&quot;#000000&quot;&gt;- CCTV&lt;br&gt;&lt;/font&gt;&lt;/div&gt;" style="rounded=1;whiteSpace=wrap;html=1;fillColor=#fff2cc;strokeColor=#d6b656;gradientColor=#ffd966;" vertex="1" parent="1">
          <mxGeometry x="280" y="119" width="120" height="160" as="geometry" />
        </mxCell>
        <mxCell id="7mqCqa5LbuB4b-R1EXME-21" value="" style="edgeStyle=orthogonalEdgeStyle;rounded=0;orthogonalLoop=1;jettySize=auto;html=1;fontSize=16;fontColor=#0d0d0d;" edge="1" parent="1" source="7mqCqa5LbuB4b-R1EXME-16" target="7mqCqa5LbuB4b-R1EXME-20">
          <mxGeometry relative="1" as="geometry" />
        </mxCell>
        <mxCell id="7mqCqa5LbuB4b-R1EXME-16" value="&lt;font color=&quot;#0A0A0A&quot;&gt;&lt;b&gt;ICS&lt;/b&gt;&lt;/font&gt; &lt;b&gt;&lt;font color=&quot;#0d0d0d&quot;&gt;EMGA&lt;/font&gt;&lt;/b&gt;" style="ellipse;whiteSpace=wrap;html=1;fillColor=#b0e3e6;strokeColor=#0e8088;" vertex="1" parent="1">
          <mxGeometry x="472.5" y="149" width="85" height="80" as="geometry" />
        </mxCell>
        <mxCell id="7mqCqa5LbuB4b-R1EXME-20" value="&lt;div align=&quot;center&quot;&gt;&lt;font color=&quot;#000000&quot;&gt;- Funcional 100% SIP&lt;/font&gt;&lt;/div&gt;" style="rounded=1;whiteSpace=wrap;html=1;fillColor=#b0e3e6;strokeColor=#0e8088;align=center;" vertex="1" parent="1">
          <mxGeometry x="463" y="49" width="105" height="60" as="geometry" />
        </mxCell>
        <mxCell id="7mqCqa5LbuB4b-R1EXME-27" value="" style="edgeStyle=orthogonalEdgeStyle;rounded=0;orthogonalLoop=1;jettySize=auto;html=1;fontSize=13;fontColor=#030303;" edge="1" parent="1" source="7mqCqa5LbuB4b-R1EXME-23" target="7mqCqa5LbuB4b-R1EXME-26">
          <mxGeometry relative="1" as="geometry">
            <Array as="points">
              <mxPoint x="560" y="650" />
              <mxPoint x="630" y="650" />
            </Array>
          </mxGeometry>
        </mxCell>
        <mxCell id="7mqCqa5LbuB4b-R1EXME-23" value="&lt;div style=&quot;font-size: 13px;&quot;&gt;&lt;b&gt;&lt;font style=&quot;font-size: 13px;&quot; color=&quot;#030303&quot;&gt;OPV 3&lt;/font&gt;&lt;/b&gt;&lt;/div&gt;&lt;div style=&quot;font-size: 13px;&quot;&gt;&lt;b&gt;&lt;font style=&quot;font-size: 13px;&quot; color=&quot;#030303&quot;&gt;COL&lt;br&gt;&lt;/font&gt;&lt;/b&gt;&lt;/div&gt;" style="ellipse;whiteSpace=wrap;html=1;fillColor=#d5e8d4;strokeColor=#82b366;" vertex="1" parent="1">
          <mxGeometry x="510" y="547" width="100" height="95" as="geometry" />
        </mxCell>
        <mxCell id="7mqCqa5LbuB4b-R1EXME-26" value="&lt;font color=&quot;#000000&quot;&gt;- IRIDIUM&lt;/font&gt;" style="rounded=1;whiteSpace=wrap;html=1;fillColor=#d5e8d4;strokeColor=#82b366;" vertex="1" parent="1">
          <mxGeometry x="580" y="680" width="110" height="30" as="geometry" />
        </mxCell>
        <mxCell id="7mqCqa5LbuB4b-R1EXME-37" value="" style="edgeStyle=orthogonalEdgeStyle;rounded=0;orthogonalLoop=1;jettySize=auto;html=1;fontSize=13;fontColor=#000000;" edge="1" parent="1" source="7mqCqa5LbuB4b-R1EXME-29" target="7mqCqa5LbuB4b-R1EXME-36">
          <mxGeometry relative="1" as="geometry" />
        </mxCell>
        <mxCell id="7mqCqa5LbuB4b-R1EXME-41" style="edgeStyle=orthogonalEdgeStyle;rounded=0;orthogonalLoop=1;jettySize=auto;html=1;entryX=0;entryY=0.5;entryDx=0;entryDy=0;fontSize=13;fontColor=#050505;" edge="1" parent="1" source="7mqCqa5LbuB4b-R1EXME-29" target="7mqCqa5LbuB4b-R1EXME-40">
          <mxGeometry relative="1" as="geometry">
            <Array as="points">
              <mxPoint x="830" y="219" />
              <mxPoint x="830" y="319" />
            </Array>
          </mxGeometry>
        </mxCell>
        <mxCell id="7mqCqa5LbuB4b-R1EXME-29" value="&lt;div style=&quot;font-size: 13px;&quot;&gt;&lt;b&gt;&lt;font style=&quot;font-size: 13px;&quot; color=&quot;#030303&quot;&gt;ICS ANTARTICA &lt;br&gt;&lt;/font&gt;&lt;/b&gt;&lt;/div&gt;&lt;div style=&quot;font-size: 13px;&quot;&gt;&lt;b&gt;&lt;font style=&quot;font-size: 13px;&quot; color=&quot;#030303&quot;&gt;ACH&lt;/font&gt;&lt;/b&gt;&lt;br&gt;&lt;/div&gt;" style="ellipse;whiteSpace=wrap;html=1;fillColor=#fff2cc;strokeColor=#d6b656;gradientColor=#ffd966;" vertex="1" parent="1">
          <mxGeometry x="670" y="159" width="140" height="130" as="geometry" />
        </mxCell>
        <mxCell id="7mqCqa5LbuB4b-R1EXME-39" value="" style="edgeStyle=orthogonalEdgeStyle;rounded=0;orthogonalLoop=1;jettySize=auto;html=1;fontSize=13;fontColor=#0b0b0b;entryX=0.5;entryY=0;entryDx=0;entryDy=0;" edge="1" parent="1" source="7mqCqa5LbuB4b-R1EXME-35" target="7mqCqa5LbuB4b-R1EXME-38">
          <mxGeometry relative="1" as="geometry">
            <Array as="points">
              <mxPoint x="730" y="470" />
              <mxPoint x="696" y="470" />
            </Array>
          </mxGeometry>
        </mxCell>
        <mxCell id="7mqCqa5LbuB4b-R1EXME-42" style="edgeStyle=orthogonalEdgeStyle;rounded=0;orthogonalLoop=1;jettySize=auto;html=1;fontSize=13;fontColor=#050505;" edge="1" parent="1" source="7mqCqa5LbuB4b-R1EXME-35">
          <mxGeometry relative="1" as="geometry">
            <mxPoint x="880" y="319" as="targetPoint" />
            <Array as="points">
              <mxPoint x="830" y="399" />
              <mxPoint x="830" y="319" />
            </Array>
          </mxGeometry>
        </mxCell>
        <mxCell id="7mqCqa5LbuB4b-R1EXME-35" value="&lt;div&gt;&lt;b&gt;&lt;font color=&quot;#000000&quot;&gt;ICS ALDEA&lt;/font&gt;&lt;/b&gt;&lt;/div&gt;&lt;div&gt;&lt;b&gt;&lt;font color=&quot;#000000&quot;&gt;ACH&lt;/font&gt;&lt;br&gt;&lt;/b&gt;&lt;/div&gt;" style="ellipse;whiteSpace=wrap;html=1;fillColor=#fff2cc;strokeColor=#d6b656;gradientColor=#ffd966;" vertex="1" parent="1">
          <mxGeometry x="670" y="339" width="120" height="120" as="geometry" />
        </mxCell>
        <mxCell id="7mqCqa5LbuB4b-R1EXME-36" value="&lt;div align=&quot;left&quot;&gt;&lt;font color=&quot;#0b0b0b&quot;&gt;- SIG.&lt;/font&gt;&lt;/div&gt;&lt;div align=&quot;left&quot;&gt;&lt;font color=&quot;#0b0b0b&quot;&gt;- Telemedicina&lt;/font&gt;&lt;br&gt;&lt;/div&gt;" style="rounded=1;whiteSpace=wrap;html=1;fillColor=#fff2cc;strokeColor=#d6b656;gradientColor=#ffd966;" vertex="1" parent="1">
          <mxGeometry x="630" y="49" width="120" height="60" as="geometry" />
        </mxCell>
        <mxCell id="7mqCqa5LbuB4b-R1EXME-38" value="&lt;div align=&quot;left&quot;&gt;&lt;font color=&quot;#050505&quot;&gt;- DIseño HW&lt;/font&gt;&lt;/div&gt;&lt;div align=&quot;left&quot;&gt;&lt;font color=&quot;#050505&quot;&gt;- Motor TRICS&lt;/font&gt;&lt;/div&gt;&lt;div align=&quot;left&quot;&gt;&lt;font color=&quot;#050505&quot;&gt;- Botonera&lt;/font&gt;&lt;/div&gt;&lt;div align=&quot;left&quot;&gt;&lt;font color=&quot;#050505&quot;&gt;- Aumento Matriz CICS&lt;br&gt;&lt;/font&gt;&lt;/div&gt;" style="rounded=1;whiteSpace=wrap;html=1;fillColor=#fff2cc;strokeColor=#d6b656;gradientColor=#ffd966;" vertex="1" parent="1">
          <mxGeometry x="631" y="482" width="130" height="90" as="geometry" />
        </mxCell>
        <mxCell id="7mqCqa5LbuB4b-R1EXME-44" value="" style="edgeStyle=orthogonalEdgeStyle;rounded=0;orthogonalLoop=1;jettySize=auto;html=1;fontSize=13;fontColor=#050505;" edge="1" parent="1" source="7mqCqa5LbuB4b-R1EXME-40" target="7mqCqa5LbuB4b-R1EXME-43">
          <mxGeometry relative="1" as="geometry" />
        </mxCell>
        <mxCell id="7mqCqa5LbuB4b-R1EXME-40" value="&lt;div style=&quot;font-size: 13px;&quot;&gt;&lt;b&gt;&lt;font style=&quot;font-size: 13px;&quot; color=&quot;#030303&quot;&gt;ICS ESCOTILLON &lt;br&gt;&lt;/font&gt;&lt;/b&gt;&lt;/div&gt;&lt;div style=&quot;font-size: 13px;&quot;&gt;&lt;b&gt;&lt;font style=&quot;font-size: 13px;&quot; color=&quot;#030303&quot;&gt;ACH&lt;/font&gt;&lt;/b&gt;&lt;br&gt;&lt;/div&gt;" style="ellipse;whiteSpace=wrap;html=1;fillColor=#fff2cc;strokeColor=#d6b656;gradientColor=#ffd966;" vertex="1" parent="1">
          <mxGeometry x="880" y="259" width="120" height="120" as="geometry" />
        </mxCell>
        <mxCell id="7mqCqa5LbuB4b-R1EXME-43" value="&lt;div align=&quot;left&quot;&gt;&lt;font color=&quot;#030303&quot;&gt;- Diseño SW (HMI/TRICS)&lt;/font&gt;&lt;/div&gt;&lt;div align=&quot;left&quot;&gt;&lt;font color=&quot;#030303&quot;&gt;- Diseño HW (TRI-TRE)&lt;br&gt;&lt;/font&gt;&lt;/div&gt;" style="rounded=1;whiteSpace=wrap;html=1;fillColor=#fff2cc;strokeColor=#d6b656;gradientColor=#ffd966;" vertex="1" parent="1">
          <mxGeometry x="940" y="159" width="150" height="60" as="geometry" />
        </mxCell>
        <mxCell id="7mqCqa5LbuB4b-R1EXME-46" value="" style="endArrow=none;dashed=1;html=1;dashPattern=1 3;strokeWidth=2;rounded=0;fontSize=13;fontColor=#030303;fillColor=#dae8fc;gradientColor=#7ea6e0;strokeColor=#6c8ebf;" edge="1" parent="1">
          <mxGeometry width="50" height="50" relative="1" as="geometry">
            <mxPoint x="772" y="760" as="sourcePoint" />
            <mxPoint x="772" y="50" as="targetPoint" />
          </mxGeometry>
        </mxCell>
      </root>
    </mxGraphModel>
  </diagram>
</mxfile>
